<svg xmlns="http://www.w3.org/2000/svg" width="64" height="62.424" viewBox="0 0 64 62.424"><path d="M32.006,0A32,32,0,0,0,21.893,62.368c1.6.292,2.1-.656,2.1-1.5,0-.76.016-2.885,0-5.555-8.9,1.934-10.745-4.215-10.745-4.215C11.8,47.4,9.7,46.412,9.7,46.412c-2.9-1.984.218-1.946.218-1.946,3.211.226,4.9,3.3,4.9,3.3,2.855,4.887,7.488,3.475,9.31,2.659a6.848,6.848,0,0,1,2.035-4.279c-7.106-.808-14.576-3.553-14.576-15.816a12.366,12.366,0,0,1,3.293-8.586,11.488,11.488,0,0,1,.314-8.47s2.687-.86,8.8,3.283a30.36,30.36,0,0,1,16.024,0c6.112-4.141,8.794-3.283,8.794-3.283a11.508,11.508,0,0,1,.318,8.47,12.363,12.363,0,0,1,3.289,8.586c0,12.3-7.482,15-14.612,15.79,1.148.99,2.191,2.911,2.191,5.9v8.858c0,.856.516,1.8,2.141,1.492A32.006,32.006,0,0,0,32.006,0Z" transform="translate(-0.008)" fill="#181616" fill-rule="evenodd"/></svg>