<svg xmlns="http://www.w3.org/2000/svg" width="64" height="64" viewBox="0 0 64 64"><path d="M32,0A32,32,0,1,1,0,32,32.015,32.015,0,0,1,32,0ZM22,49.984V24.994H13.687v24.99Zm29.953,0V35.653c0-7.676-4.1-11.247-9.564-11.247A8.251,8.251,0,0,0,34.9,28.532V24.994H26.592c.11,2.345,0,24.99,0,24.99H34.9V36.028A5.679,5.679,0,0,1,35.172,34a4.546,4.546,0,0,1,4.262-3.037c3,0,4.208,2.293,4.208,5.65V49.984h8.306ZM17.9,12.944c-2.842,0-4.7,1.869-4.7,4.318a4.3,4.3,0,0,0,4.59,4.318h.054c2.9,0,4.7-1.92,4.7-4.318A4.318,4.318,0,0,0,17.9,12.944Z" fill-rule="evenodd"/></svg>