<svg xmlns="http://www.w3.org/2000/svg" width="64" height="63.998" viewBox="0 0 64 63.998"><g transform="translate(-0.8 -0.806)"><path d="M64.8,32.805a32.014,32.014,0,0,0-32-32h0a32,32,0,1,0,0,64h0A32.014,32.014,0,0,0,64.8,32.805Zm-28.787,0A14.146,14.146,0,1,1,21.868,18.562,14.194,14.194,0,0,1,36.013,32.805Zm15.518,0c0,7.4-3.167,13.409-7.073,13.409s-7.073-6-7.073-13.409S40.551,19.4,44.458,19.4s7.073,6,7.073,13.409Zm6.347,0c0,6.632-1.114,12.012-2.488,12.012S52.9,39.439,52.9,32.805s1.113-12.012,2.487-12.012S57.878,26.171,57.878,32.805Z" fill-rule="evenodd"/></g></svg>