<svg xmlns="http://www.w3.org/2000/svg" width="64" height="64" viewBox="0 0 64 64"><path d="M32,0A32,32,0,1,1,0,32,32.015,32.015,0,0,1,32,0ZM26.364,49.02c14.16,0,21.9-11.734,21.9-21.9,0-.335,0-.67-.016-.99A15.769,15.769,0,0,0,52.1,22.136a15.622,15.622,0,0,1-4.422,1.213,7.694,7.694,0,0,0,3.384-4.262,15.591,15.591,0,0,1-4.885,1.868,7.7,7.7,0,0,0-13.314,5.268,7.056,7.056,0,0,0,.208,1.756A21.837,21.837,0,0,1,17.2,19.933,7.694,7.694,0,0,0,19.595,30.2a7.562,7.562,0,0,1-3.48-.958v.1a7.706,7.706,0,0,0,6.178,7.551,7.678,7.678,0,0,1-2.027.271,7.342,7.342,0,0,1-1.453-.144A7.686,7.686,0,0,0,26,42.363a15.474,15.474,0,0,1-9.563,3.289A14.01,14.01,0,0,1,14.6,45.54a21.448,21.448,0,0,0,11.766,3.48Z" fill-rule="evenodd"/></svg>